<svg id="emoji" xmlns="http://www.w3.org/2000/svg" viewBox="0 0 72 72">
  <g id="color">
    <rect x="5.0003" y="17" width="62" height="5.9249" fill="#3f3f3f"/>
    <rect x="5.0003" y="49.0751" width="62" height="5.9249" fill="#3f3f3f"/>
    <rect x="5.0003" y="40.3584" width="62" height="8.7167" fill="#d22f27"/>
    <rect x="5.0003" y="31.6416" width="62" height="8.7167" fill="#5c9e31"/>
    <rect x="5.0003" y="22.9249" width="62" height="8.7167" fill="#61b2e4"/>
    <circle cx="36" cy="35.9583" r="11.5" fill="#fcea2b"/>
    <line x1="36" y1="24.9393" x2="36" y2="46.9517" fill="none" stroke="#781e32" stroke-linecap="round" stroke-miterlimit="10"/>
    <line x1="24.9923" y1="35.9583" x2="47.0081" y2="35.9583" fill="none" stroke="#781e32" stroke-linecap="round" stroke-miterlimit="10"/>
    <polyline points="26.222 30.871 31.309 35.958 26.222 41.046" fill="none" stroke="#781e32" stroke-linecap="round" stroke-linejoin="round"/>
    <polyline points="41.098 26.204 36.01 31.291 30.922 26.204" fill="none" stroke="#781e32" stroke-linecap="round" stroke-linejoin="round"/>
    <polyline points="45.798 41.046 40.71 35.958 45.798 30.871" fill="none" stroke="#781e32" stroke-linecap="round" stroke-linejoin="round"/>
    <polyline points="30.922 45.735 36.01 40.647 41.098 45.735" fill="none" stroke="#781e32" stroke-linecap="round" stroke-linejoin="round"/>
    <polygon points="16.983 20.082 16.983 19.393 16.295 19.393 16.295 18.705 15.607 18.705 15.607 19.393 14.918 19.393 14.918 20.082 14.23 20.082 14.23 20.082 14.23 20.77 14.23 20.77 14.918 20.77 14.918 21.458 15.607 21.458 15.607 22.147 16.295 22.147 16.295 21.458 16.983 21.458 16.983 20.77 17.672 20.77 17.672 20.77 17.672 20.082 17.672 20.082 16.983 20.082" fill="#fff"/>
    <polygon points="11.255 20.082 11.255 19.393 10.567 19.393 10.567 18.705 9.878 18.705 9.878 19.393 9.19 19.393 9.19 20.082 8.502 20.082 8.502 20.082 8.502 20.77 8.502 20.77 9.19 20.77 9.19 21.458 9.878 21.458 9.878 22.147 10.567 22.147 10.567 21.458 11.255 21.458 11.255 20.77 11.943 20.77 11.943 20.77 11.943 20.082 11.943 20.082 11.255 20.082" fill="#fff"/>
    <polygon points="22.712 20.082 22.712 19.393 22.023 19.393 22.023 18.705 21.335 18.705 21.335 19.393 20.647 19.393 20.647 20.082 19.958 20.082 19.958 20.082 19.958 20.77 19.958 20.77 20.647 20.77 20.647 21.458 21.335 21.458 21.335 22.147 22.023 22.147 22.023 21.458 22.712 21.458 22.712 20.77 23.4 20.77 23.4 20.77 23.4 20.082 23.4 20.082 22.712 20.082" fill="#fff"/>
    <polygon points="28.44 20.082 28.44 19.393 27.752 19.393 27.752 18.705 27.063 18.705 27.063 19.393 26.375 19.393 26.375 20.082 25.687 20.082 25.687 20.082 25.687 20.77 25.687 20.77 26.375 20.77 26.375 21.458 27.063 21.458 27.063 22.147 27.752 22.147 27.752 21.458 28.44 21.458 28.44 20.77 29.128 20.77 29.128 20.77 29.128 20.082 29.128 20.082 28.44 20.082" fill="#fff"/>
    <polygon points="34.168 20.082 34.168 19.393 33.48 19.393 33.48 18.705 32.792 18.705 32.792 19.393 32.103 19.393 32.103 20.082 31.415 20.082 31.415 20.082 31.415 20.77 31.415 20.77 32.103 20.77 32.103 21.458 32.792 21.458 32.792 22.147 33.48 22.147 33.48 21.458 34.168 21.458 34.168 20.77 34.857 20.77 34.857 20.77 34.857 20.082 34.857 20.082 34.168 20.082" fill="#fff"/>
    <polygon points="39.897 20.082 39.897 19.393 39.208 19.393 39.208 18.705 38.52 18.705 38.52 19.393 37.832 19.393 37.832 20.082 37.143 20.082 37.143 20.082 37.143 20.77 37.143 20.77 37.832 20.77 37.832 21.458 38.52 21.458 38.52 22.147 39.208 22.147 39.208 21.458 39.897 21.458 39.897 20.77 40.585 20.77 40.585 20.77 40.585 20.082 40.585 20.082 39.897 20.082" fill="#fff"/>
    <polygon points="45.625 20.082 45.625 19.393 44.937 19.393 44.937 18.705 44.248 18.705 44.248 19.393 43.56 19.393 43.56 20.082 42.872 20.082 42.872 20.082 42.872 20.77 42.872 20.77 43.56 20.77 43.56 21.458 44.248 21.458 44.248 22.147 44.937 22.147 44.937 21.458 45.625 21.458 45.625 20.77 46.313 20.77 46.313 20.77 46.313 20.082 46.313 20.082 45.625 20.082" fill="#fff"/>
    <polygon points="51.353 20.082 51.353 19.393 50.665 19.393 50.665 18.705 49.977 18.705 49.977 19.393 49.288 19.393 49.288 20.082 48.6 20.082 48.6 20.082 48.6 20.77 48.6 20.77 49.288 20.77 49.288 21.458 49.977 21.458 49.977 22.147 50.665 22.147 50.665 21.458 51.353 21.458 51.353 20.77 52.042 20.77 52.042 20.77 52.042 20.082 52.042 20.082 51.353 20.082" fill="#fff"/>
    <polygon points="57.082 20.082 57.082 19.393 56.393 19.393 56.393 18.705 55.705 18.705 55.705 19.393 55.017 19.393 55.017 20.082 54.328 20.082 54.328 20.082 54.328 20.77 54.328 20.77 55.017 20.77 55.017 21.458 55.705 21.458 55.705 22.147 56.393 22.147 56.393 21.458 57.082 21.458 57.082 20.77 57.77 20.77 57.77 20.77 57.77 20.082 57.77 20.082 57.082 20.082" fill="#fff"/>
    <polygon points="62.81 20.082 62.81 19.393 62.122 19.393 62.122 18.705 61.433 18.705 61.433 19.393 60.745 19.393 60.745 20.082 60.057 20.082 60.057 20.082 60.057 20.77 60.057 20.77 60.745 20.77 60.745 21.458 61.433 21.458 61.433 22.147 62.122 22.147 62.122 21.458 62.81 21.458 62.81 20.77 63.498 20.77 63.498 20.77 63.498 20.082 63.498 20.082 62.81 20.082" fill="#fff"/>
    <polygon points="16.983 51.246 16.983 50.557 16.295 50.557 16.295 49.869 15.607 49.869 15.607 50.557 14.918 50.557 14.918 51.246 14.23 51.246 14.23 51.246 14.23 51.934 14.23 51.934 14.918 51.934 14.918 52.622 15.607 52.622 15.607 53.311 16.295 53.311 16.295 52.622 16.983 52.622 16.983 51.934 17.672 51.934 17.672 51.934 17.672 51.246 17.672 51.246 16.983 51.246" fill="#fff"/>
    <polygon points="11.255 51.246 11.255 50.557 10.567 50.557 10.567 49.869 9.878 49.869 9.878 50.557 9.19 50.557 9.19 51.246 8.502 51.246 8.502 51.246 8.502 51.934 8.502 51.934 9.19 51.934 9.19 52.622 9.878 52.622 9.878 53.311 10.567 53.311 10.567 52.622 11.255 52.622 11.255 51.934 11.943 51.934 11.943 51.934 11.943 51.246 11.943 51.246 11.255 51.246" fill="#fff"/>
    <polygon points="22.712 51.246 22.712 50.557 22.023 50.557 22.023 49.869 21.335 49.869 21.335 50.557 20.647 50.557 20.647 51.246 19.958 51.246 19.958 51.246 19.958 51.934 19.958 51.934 20.647 51.934 20.647 52.622 21.335 52.622 21.335 53.311 22.023 53.311 22.023 52.622 22.712 52.622 22.712 51.934 23.4 51.934 23.4 51.934 23.4 51.246 23.4 51.246 22.712 51.246" fill="#fff"/>
    <polygon points="28.44 51.246 28.44 50.557 27.752 50.557 27.752 49.869 27.063 49.869 27.063 50.557 26.375 50.557 26.375 51.246 25.687 51.246 25.687 51.246 25.687 51.934 25.687 51.934 26.375 51.934 26.375 52.622 27.063 52.622 27.063 53.311 27.752 53.311 27.752 52.622 28.44 52.622 28.44 51.934 29.128 51.934 29.128 51.934 29.128 51.246 29.128 51.246 28.44 51.246" fill="#fff"/>
    <polygon points="34.168 51.246 34.168 50.557 33.48 50.557 33.48 49.869 32.792 49.869 32.792 50.557 32.103 50.557 32.103 51.246 31.415 51.246 31.415 51.246 31.415 51.934 31.415 51.934 32.103 51.934 32.103 52.622 32.792 52.622 32.792 53.311 33.48 53.311 33.48 52.622 34.168 52.622 34.168 51.934 34.857 51.934 34.857 51.934 34.857 51.246 34.857 51.246 34.168 51.246" fill="#fff"/>
    <polygon points="39.897 51.246 39.897 50.557 39.208 50.557 39.208 49.869 38.52 49.869 38.52 50.557 37.832 50.557 37.832 51.246 37.143 51.246 37.143 51.246 37.143 51.934 37.143 51.934 37.832 51.934 37.832 52.622 38.52 52.622 38.52 53.311 39.208 53.311 39.208 52.622 39.897 52.622 39.897 51.934 40.585 51.934 40.585 51.934 40.585 51.246 40.585 51.246 39.897 51.246" fill="#fff"/>
    <polygon points="45.625 51.246 45.625 50.557 44.937 50.557 44.937 49.869 44.248 49.869 44.248 50.557 43.56 50.557 43.56 51.246 42.872 51.246 42.872 51.246 42.872 51.934 42.872 51.934 43.56 51.934 43.56 52.622 44.248 52.622 44.248 53.311 44.937 53.311 44.937 52.622 45.625 52.622 45.625 51.934 46.313 51.934 46.313 51.934 46.313 51.246 46.313 51.246 45.625 51.246" fill="#fff"/>
    <polygon points="51.353 51.246 51.353 50.557 50.665 50.557 50.665 49.869 49.977 49.869 49.977 50.557 49.288 50.557 49.288 51.246 48.6 51.246 48.6 51.246 48.6 51.934 48.6 51.934 49.288 51.934 49.288 52.622 49.977 52.622 49.977 53.311 50.665 53.311 50.665 52.622 51.353 52.622 51.353 51.934 52.042 51.934 52.042 51.934 52.042 51.246 52.042 51.246 51.353 51.246" fill="#fff"/>
    <polygon points="57.082 51.246 57.082 50.557 56.393 50.557 56.393 49.869 55.705 49.869 55.705 50.557 55.017 50.557 55.017 51.246 54.328 51.246 54.328 51.246 54.328 51.934 54.328 51.934 55.017 51.934 55.017 52.622 55.705 52.622 55.705 53.311 56.393 53.311 56.393 52.622 57.082 52.622 57.082 51.934 57.77 51.934 57.77 51.934 57.77 51.246 57.77 51.246 57.082 51.246" fill="#fff"/>
    <polygon points="62.81 51.246 62.81 50.557 62.122 50.557 62.122 49.869 61.433 49.869 61.433 50.557 60.745 50.557 60.745 51.246 60.057 51.246 60.057 51.246 60.057 51.934 60.057 51.934 60.745 51.934 60.745 52.622 61.433 52.622 61.433 53.311 62.122 53.311 62.122 52.622 62.81 52.622 62.81 51.934 63.498 51.934 63.498 51.934 63.498 51.246 63.498 51.246 62.81 51.246" fill="#fff"/>
    <path d="M31.2221,31.1432a1.645,1.645,0,0,1,.5618-1.2344c-.03-.0015-.0578-.0088-.0879-.0088A1.6556,1.6556,0,1,0,32.79,32.79,1.6514,1.6514,0,0,1,31.2221,31.1432Z" fill="#781e32"/>
    <polygon points="40.538 39.016 41.008 39.969 42.058 40.121 41.298 40.863 41.478 41.909 40.538 41.415 39.598 41.909 39.777 40.863 39.017 40.121 40.068 39.969 40.538 39.016" fill="#781e32"/>
    <path d="M32.3186,39.0254a.1518.1518,0,0,0-.1455.154.7645.7645,0,0,1-.1895.4977.5382.5382,0,0,1-.1441.0868.69.69,0,0,0-.4447-.1364.83.83,0,0,0-.1161-.275,1.05,1.05,0,0,0-.6635-.3849.1488.1488,0,0,0-.1669.13.1506.1506,0,0,0,.128.168.7491.7491,0,0,1,.461.2655.54.54,0,0,1,.0686.1711.6585.6585,0,0,0-.0845.0358.6976.6976,0,0,0-.2946.4772.8215.8215,0,0,0-.2149-.01,1.0534,1.0534,0,0,0-.6334.4335.1508.1508,0,0,0,.0448.2072.1492.1492,0,0,0,.2077-.044.7541.7541,0,0,1,.4381-.3022.5421.5421,0,0,1,.1815.0118.6043.6043,0,0,0,.3628.4308.8294.8294,0,0,0-.08.2373,1.06,1.06,0,0,0,.2421.729.1507.1507,0,0,0,.1978.0244l.0131-.01a.15.15,0,0,0,.0164-.2112.7583.7583,0,0,1-.1709-.5055.5476.5476,0,0,1,.07-.1948.6879.6879,0,0,0,.4153-.11.6706.6706,0,0,0,.0753-.0774.8255.8255,0,0,0,.2273.1613,1.0543,1.0543,0,0,0,.7671-.0221.1187.1187,0,0,0,.0234-.0124.15.15,0,0,0-.1465-.2607.7632.7632,0,0,1-.5328.0168.5441.5441,0,0,1-.171-.1266.6876.6876,0,0,0-.0233-.5741c.0127-.0077.0294-.01.0417-.0185a.814.814,0,0,0,.119-.0993,1.0517,1.0517,0,0,0,.2749-.7171A.15.15,0,0,0,32.3186,39.0254Z" fill="#781e32"/>
    <path d="M41.7483,31.2924a.1515.1515,0,0,0-.2115.0106.7647.7647,0,0,1-.4811.2284.536.536,0,0,1-.1642-.037.69.69,0,0,0-.2268-.406.8309.8309,0,0,0,.1062-.2789,1.0507,1.0507,0,0,0-.2129-.7369.1488.1488,0,0,0-.21-.0218.1507.1507,0,0,0-.0238.21.7489.7489,0,0,1,.1494.5106.5413.5413,0,0,1-.0688.1709.6765.6765,0,0,0-.0858-.0326.6981.6981,0,0,0-.5428.1411.8191.8191,0,0,0-.1485-.1557A1.053,1.053,0,0,0,38.87,30.77a.1509.1509,0,0,0-.111.1806.1493.1493,0,0,0,.1805.1119.7541.7541,0,0,1,.5254.0847.54.54,0,0,1,.1229.1341.6045.6045,0,0,0-.0358.562.834.834,0,0,0-.222.116,1.0608,1.0608,0,0,0-.3293.694.1508.1508,0,0,0,.126.1544.1015.1015,0,0,0,.0165.0017.15.15,0,0,0,.158-.1412.7569.7569,0,0,1,.2262-.4833.5487.5487,0,0,1,.1855-.0921.6874.6874,0,0,0,.3763.2076.6581.6581,0,0,0,.1079-.0039.8229.8229,0,0,0,.0526.2738,1.0546,1.0546,0,0,0,.5693.5146.1243.1243,0,0,0,.0255.0071.15.15,0,0,0,.0745-.29.7637.7637,0,0,1-.3965-.3564.5435.5435,0,0,1-.0359-.21.6875.6875,0,0,0,.38-.4308c.0146.0032.0283.013.043.0154a.809.809,0,0,0,.1546.0107,1.0518,1.0518,0,0,0,.6945-.3279A.15.15,0,0,0,41.7483,31.2924Z" fill="#781e32"/>
  </g>
  <g id="line">
    <g id="line-2" data-name="line">
      <rect x="5.0003" y="17" width="62" height="38" stroke-width="2" stroke="#000" stroke-linecap="round" stroke-linejoin="round" fill="none"/>
    </g>
  </g>
</svg>
