<svg id="emoji" xmlns="http://www.w3.org/2000/svg" viewBox="0 0 72 72">
  <g id="color">
    <path d="M31.6942,50.1406a20.7992,20.7992,0,0,1-12.9063-4.4394,21.1,21.1,0,0,1-3.6523-3.6543h0a20.7828,20.7828,0,0,1-4.4414-12.9063,21,21,0,1,1,21,21Z" fill="#3f3f3f"/>
    <path d="M7.4071,56.998a3.57,3.57,0,0,1-2.5254-6.0957L15.1639,40.8262a1.0293,1.0293,0,0,1,.7666-.2842,1.0006,1.0006,0,0,1,.7217.3828A18.871,18.871,0,0,0,19.91,44.1836a.9991.9991,0,0,1,.0986,1.4883L9.94,55.9463l-.0069.0068A3.5621,3.5621,0,0,1,7.4071,56.998Zm1.8193-1.7519h0Z" fill="#9b9b9a"/>
    <path d="M31.6942,42.1406a12.874,12.874,0,0,1-7.9893-2.748A13.0193,13.0193,0,0,1,21.4432,37.13a12.8648,12.8648,0,0,1-2.749-7.9893,13,13,0,1,1,13,13Z" fill="#9b9b9a"/>
    <path d="M57.6229,61.9873a3.3552,3.3552,0,0,1-.8408-.1035,2.5735,2.5735,0,0,1-1.8946-1.8594l-5.792-23.0957c-1.4609-1.2109-8.1328-7.0644-8.6328-13.375a8.7533,8.7533,0,0,1,2.4551-6.8428A6.64,6.64,0,0,1,48.48,15.1055c.0225.0049.0459.01.0684.0166l.0273.0068a8.7532,8.7532,0,0,1,5.6045,4.4717c2.832,5.45.4385,13.6328-.2979,15.8428l.3106,1.3154,6.7353,21.5527.0049.0127a2.57,2.57,0,0,1-.6465,2.5733A3.7787,3.7787,0,0,1,57.6229,61.9873Z" fill="#f1b31c"/>
  </g>
  <g id="line">
    <path d="M9.2261,55.2463l10.069-10.2742A19.8671,19.8671,0,0,1,15.864,41.54L5.589,51.6092a2.5718,2.5718,0,1,0,3.6371,3.6371Z" fill="none" stroke="#000" stroke-linecap="round" stroke-linejoin="round" stroke-width="2"/>
    <path d="M46.8028,16.0356a19.9966,19.9966,0,1,0,3.32,20.89" fill="none" stroke="#000" stroke-linecap="round" stroke-linejoin="round" stroke-width="2"/>
    <path d="M20.0018,26.43a12.0013,12.0013,0,1,0,23.6894,2.9921" fill="none" stroke="#000" stroke-linecap="round" stroke-linejoin="round" stroke-width="2"/>
    <path d="M41.46,22.1655a12.0025,12.0025,0,0,0-19.6708.1994" fill="none" stroke="#000" stroke-linecap="round" stroke-linejoin="round" stroke-width="2"/>
    <path d="M37.0234,31.9008a5.9971,5.9971,0,1,0-2.4354,2.4976" fill="none" stroke="#000" stroke-linecap="round" stroke-linejoin="round" stroke-width="2"/>
    <path d="M50.5192,31.7521c2.8141-12.5534-4.188-12.0969-4.188-12.0969" fill="none" stroke="#000" stroke-linecap="round" stroke-linejoin="round" stroke-width="2"/>
    <g>
      <path d="M53.2192,36.9879l-.3753-1.5943c-.0416.12-.0654.1841-.0654.1841Z" fill="none" stroke="#000" stroke-linecap="round" stroke-linejoin="round" stroke-width="2"/>
      <path d="M59.9746,58.61,53.2192,36.9879l-.3753-1.5943c.629-1.8113,5.3794-16.4694-4.5423-19.3025l.0073.0312-.0256-.0359A5.6233,5.6233,0,0,0,43.652,17.39v0c-7.4747,8.0959,6.3319,18.973,6.3319,18.973l5.871,23.4047C56.4559,62.0288,60.6418,60.8546,59.9746,58.61Z" fill="none" stroke="#000" stroke-linecap="round" stroke-linejoin="round" stroke-width="2"/>
    </g>
    <line x1="48.2979" y1="13.1768" x2="48.2979" y2="7.9459" fill="none" stroke="#000" stroke-linecap="round" stroke-linejoin="round" stroke-width="2"/>
    <line x1="52.1277" y1="13.924" x2="55.8335" y2="10.2182" fill="none" stroke="#000" stroke-linecap="round" stroke-linejoin="round" stroke-width="2"/>
  </g>
</svg>
