<svg id="emoji" xmlns="http://www.w3.org/2000/svg" viewBox="0 0 72 72">
  <g id="color">
    <path d="M47.8116,62.8643a2.7955,2.7955,0,0,1-.2979-.0166,2.7049,2.7049,0,0,1-1.831-.9971L36.1768,50.0557a1,1,0,0,1-.2217-.628V45.9766a.9994.9994,0,0,1,1-1H52.1632a2.7256,2.7256,0,0,1,0,5.4511H43.4766l6.4493,8.002a2.724,2.724,0,0,1-2.1143,4.4346Z" fill="#d0cfce"/>
    <path d="M36.9551,68h-9.83a.9994.9994,0,0,1-1-1V45.9766a.9993.9993,0,0,1,1-1h9.83a.9993.9993,0,0,1,1,1V67A.9994.9994,0,0,1,36.9551,68Z" fill="#9b9b9a"/>
    <path d="M13.8728,24.987a1.5348,1.5348,0,0,1-1.2876-1.6914c.1787-.7637,1.3589-6.9417,19.0239-6.1057,15.2256.7168,17.7735-5.55,17.7979-5.6088.3086-.7559.9545-.6991,1.7152-.4071a1.4856,1.4856,0,0,1,.8818,1.89c-.1162.3271-2.849,8.3964-20.5355,7.5644-14.7656-.6953-15.5869,3.4012-15.5977,3.449C15.7839,24.84,14.5058,25.1459,13.8728,24.987Z" fill="#e3bd94"/>
    <path d="M47.0528,14.1409c-2.3547,1.6644-6.9062,3.46-15.447,3.0578-7.7284-.3657-12.3016.611-15.016,1.89l1.5435,2.9944c2.0524-.9431,5.9491-1.7934,13.3319-1.4458,9.5647.45,14.7562-1.7033,17.5255-3.8276Z" fill="#d0cfce"/>
    <path d="M44.643,34.48a.9786.9786,0,0,0-.023-.2022.9668.9668,0,0,0-.0237-.1788.9981.9981,0,0,0-.174-.3133c-.0066-.0081-.0078-.0184-.0147-.0263l-.0005-.0005a1.0075,1.0075,0,0,0-.2766-.2159c-.0132-.0073-.0229-.0216-.0363-.0283l-.002-.0014c-3.0078-1.4971-5.708-2.8409-6.19-3.0821-3.03-2.3086-.6289-7.9677.664-11.0176.1641-.3857.3135-.7373.4375-1.0468.0056-.0138.003-.0281.0078-.042a2.1916,2.1916,0,0,0,.0547-.3948c-.0009-.0144.0054-.0272.0039-.0417a.91.91,0,0,0-.041-.1317.9668.9668,0,0,0-.0613-.1966,1.8386,1.8386,0,0,0-.228-.303.9723.9723,0,0,0-.171-.1123.9405.9405,0,0,0-.12-.0787c-.0144-.0057-.0295-.0031-.0441-.0081a1.018,1.018,0,0,0-.1888-.0343,1.0043,1.0043,0,0,0-.198-.0194c-.0164.0008-.031-.0062-.0476-.0046a45.3792,45.3792,0,0,1-6.8925.1543c-1.7686-.083-3.4542-.0918-5.004-.0274l-.0085.0021a1.0077,1.0077,0,0,0-.1741.0429,1.0218,1.0218,0,0,0-.2121.0568l-.0066.0018a.9242.9242,0,0,0-.0829.0641.9966.9966,0,0,0-.2191.1695,5.9358,5.9358,0,0,0-.1944.3287,1.0038,1.0038,0,0,0-.04.2556.9544.9544,0,0,0-.0189.12l.0018.0072a1.0129,1.0129,0,0,0,.069.2758,1.0531,1.0531,0,0,0,.0293.11l.0025.0095c2.9462,5.9531-.2413,13.1582-3.4336,18.1553A1,1,0,0,0,22.09,38.106c.0088.0056.0188.0072.0276.0125A14.5361,14.5361,0,0,0,30.8129,40.89c3.6816,0,8.3174-1.31,13.4834-5.7207.0111-.01.0154-.0232.0259-.033a.982.982,0,0,0,.2119-.27l.0078-.0113.0005-.0008c.0063-.0128.0049-.0266.0106-.04A1.004,1.004,0,0,0,44.643,34.48Z" fill="#1e50a0"/>
    <g>
      <path d="M27.98,39.3379a.95.95,0,0,0-.0335-.1931.7939.7939,0,0,0-.1679-.3477.9707.9707,0,0,0-.0647-.1018c-.0157-.0162-.0369-.0219-.0533-.0369a1.5,1.5,0,0,0-.3411-.2036c-.0207-.0072-.0354-.023-.0568-.029a11.2739,11.2739,0,0,1-3.8662-1.8731.9824.9824,0,0,0-.6233-.222l-.0032,0a.9717.9717,0,0,0-.1526.0035.985.985,0,0,0-.8567.4425c-.6543,1.02-1.3691,2.042-2.123,3.0371a7.5735,7.5735,0,0,0-.9492,1.6484l-.4258.9981c-3.1885,7.4414-3.6953,9.7373-2.3613,10.6767a1.4257,1.4257,0,0,0,.84.2666c.9912,0,2.1436-.9179,3.2686-1.9609a1.0126,1.0126,0,0,0,.2011-.2627c2.95-5.5293,5.2549-8.9434,7.4737-11.07.0169-.0163.0229-.0384.0385-.0554a1.1412,1.1412,0,0,0,.2-.3251c.0091-.0249.0258-.0447.0332-.0707a.9569.9569,0,0,0,.0094-.1262A.9807.9807,0,0,0,27.98,39.3379Z" fill="#e3bd94"/>
      <path d="M53.3305,38.0889,44.11,33.499a.9388.9388,0,0,0-.1631-.0439,1.01,1.01,0,0,0-.2078-.0561,11.0342,11.0342,0,0,0-.3825.046,1.0028,1.0028,0,0,0-.29.16c-.0162.0122-.0361.0153-.0517.0286a27.2517,27.2517,0,0,1-3.8125,2.7529.9369.9369,0,0,0-.1106.1,1.7128,1.7128,0,0,0-.3357.4658c-.0025.0079,0,.0157-.0025.0236a.9981.9981,0,0,0-.0232.2268,1.0174,1.0174,0,0,0-.01.1617,1.0066,1.0066,0,0,0,.0474.1575.995.995,0,0,0,.0733.2115c.0043.0075.0038.0161.0082.0236a.9873.9873,0,0,0,.2009.2362c.0179.0159.0379.0278.0569.0423a.99.99,0,0,0,.2716.1482c.0133.0047.0224.0154.036.02,2.6465.82,5.8164,2.1514,9.4873,3.6934l2.5831,1.081a2.9829,2.9829,0,0,0,1.2031.2725,2.2606,2.2606,0,0,0,2.0771-1.3535A2.9442,2.9442,0,0,0,53.3305,38.0889Z" fill="#e3bd94"/>
    </g>
    <circle cx="31.3325" cy="12.2926" r="3" fill="#e3bd94"/>
  </g>
  <g id="line">
    <polyline points="36.955 64.024 36.955 45.977 27.125 45.977 27.125 64.024" fill="none" stroke="#000" stroke-linecap="round" stroke-linejoin="round" stroke-width="2"/>
    <line x1="27.1254" y1="67.0003" x2="36.9547" y2="67.0003" fill="none" stroke="#000" stroke-linecap="round" stroke-linejoin="round" stroke-width="2"/>
    <path d="M36.9551,49.4275l9.5061,11.7953a1.7252,1.7252,0,1,0,2.6866-2.1652l-7.761-9.63H52.1627a1.7253,1.7253,0,0,0,0-3.4506H36.9547" fill="none" stroke="#000" stroke-linecap="round" stroke-linejoin="round" stroke-width="2"/>
    <polygon points="32.04 61.406 31.066 60.142 32.04 58.924 33.014 60.142 32.04 61.406" fill="#d22f27"/>
    <polygon points="33.988 61.406 33.014 60.142 33.988 58.924 34.963 60.142 33.988 61.406" fill="#d22f27"/>
    <polygon points="30.092 61.406 29.118 60.142 30.092 58.924 31.066 60.142 30.092 61.406" fill="#d22f27"/>
    <circle cx="31.3325" cy="12.2926" r="3" fill="none" stroke="#000" stroke-miterlimit="10" stroke-width="2"/>
    <path d="M26.9846,39.3882c-2.3749,2.2772-4.782,5.9194-7.6633,11.3212-6.3338,5.8785-1.2691-5.1738.281-8.86a6.5747,6.5747,0,0,1,.8241-1.4319c3.5257-4.6516,9.6239-14.3742,5.699-22.3056" fill="none" stroke="#000" stroke-linecap="round" stroke-linejoin="round" stroke-width="2"/>
    <path d="M38.0849,17.9794c-1.2245,3.0465-4.8852,10.2414-.7,13.2932l15.4922,7.7119c1.8946.8687,1.266,4.0719-.9964,3.0785-4.9651-2.0682-8.8871-3.7952-12.1764-4.8149" fill="none" stroke="#000" stroke-linecap="round" stroke-linejoin="round" stroke-width="2"/>
    <path d="M38.8,14.0662a4.1056,4.1056,0,0,1-2.0346-1.3871C36.2,12,35.79,10.4834,35.3227,10.0572c-.5521-.7646-1.96.03-1.96.03" fill="none" stroke="#000" stroke-linecap="round" stroke-linejoin="round" stroke-width="2"/>
    <path d="M50.31,11.9694s-2.4885,6.9611-19.27,6.1693S13.5488,23.568,13.5488,23.568" fill="none" stroke="#000" stroke-linecap="round" stroke-linejoin="round" stroke-width="2"/>
    <path d="M22.743,37.3161s8.7615,7.4545,20.9133-2.9214" fill="none" stroke="#000" stroke-linecap="round" stroke-linejoin="round" stroke-width="2"/>
  </g>
</svg>
