<svg id="emoji" xmlns="http://www.w3.org/2000/svg" viewBox="0 0 72 72">
  <g id="color">
    <path d="M54.9,61h-38a1,1,0,0,1-1-1V57c0-5.3271,5.1406-10,11-10a1.0018,1.0018,0,0,1,.6406.2314c5.625,4.6875,11.0938,4.6875,16.7188,0A1.0018,1.0018,0,0,1,44.9,47c5.8594,0,11,4.6729,11,10v3A1,1,0,0,1,54.9,61Z"/>
    <path d="M50.9879,49.1949a.9855.9855,0,0,0-.0408-.2028,1.6088,1.6088,0,0,0-.1921-.3253.9806.9806,0,0,0-.1587-.1341.9511.9511,0,0,0-.1-.0845c-.0278-.0153-.0575-.0253-.0854-.04l-.013-.0062a11.4283,11.4283,0,0,0-5.353-1.3993L45.0335,47l-.0058.0012L45.01,47a1,1,0,0,0-1,1,.9229.9229,0,0,0,.0234.1162v6.35H28.01V48a1,1,0,0,0-1-1,11.4288,11.4288,0,0,0-5.4824,1.4463.9381.9381,0,0,0-.1123.0948.7176.7176,0,0,0-.2591.2931.9537.9537,0,0,0-.078.1518.9825.9825,0,0,0-.0442.2191.9512.9512,0,0,0-.024.1191V60a1,1,0,0,0,1,1H50.014a1,1,0,0,0,1-1V49.3242A.9224.9224,0,0,0,50.9879,49.1949Z" fill="#d22f27"/>
    <path d="M36.012,11c-9.7431,0-15,6.6978-15,13,0,6.8428.8672,15,5,15a.9386.9386,0,0,0,.1121-.0226A.9978.9978,0,0,0,26.2816,39a.9861.9861,0,0,0,.4033-.0859.9985.9985,0,0,0,.51-1.3184A15.887,15.887,0,0,1,25.9115,31.02a16.7267,16.7267,0,0,1,.8447-4.6714,57.1326,57.1326,0,0,0,18.5869.1153A18.2024,18.2024,0,0,1,46.012,31a16.0173,16.0173,0,0,1-1.3691,6.5859A1,1,0,0,0,45.139,38.91a.9787.9787,0,0,0,.6542.0457A.96.96,0,0,0,46.012,39c4.1329,0,5-8.1572,5-15C51.012,17.6978,45.7552,11,36.012,11Z"/>
    <path d="M46.5237,25.1812a.5008.5008,0,0,0-.5713-.35,55.6017,55.6017,0,0,1-19.7686-.12.5374.5374,0,0,0-.11-.0117.5014.5014,0,0,0-.4727.3311,19.06,19.06,0,0,0-1.207,5.9672A15.7778,15.7778,0,0,0,28.55,42.2939,10.3272,10.3272,0,0,0,35.8938,45.5c6.5049,0,11.6-6.3691,11.6-14.5A20.97,20.97,0,0,0,46.5237,25.1812Z" fill="#fbe8c5"/>
    <g>
      <path d="M47.43,29.479a.7662.7662,0,0,0-.0517-.1377.6724.6724,0,0,0-.08-.1191.6022.6022,0,0,0-.2129-.18.7348.7348,0,0,0-.1279-.06.7571.7571,0,0,0-.1446-.0278l-.0869-.0186L25.134,28.9321l-.0761.02a.7426.7426,0,0,0-.1455.0288.6748.6748,0,0,0-.13.0556.6525.6525,0,0,0-.1153.0772.6833.6833,0,0,0-.1015.1011.7668.7668,0,0,0-.0772.1152.6582.6582,0,0,0-.0566.1367l-.0352.0845A15.9528,15.9528,0,0,0,24.1,32.2534c-.0059.5039.0078,1.0171.041,1.522a.946.946,0,0,0,.03.1025l.0293.0987a.5837.5837,0,0,0,.0332.0986l.0889.1152a.6921.6921,0,0,0,.0869.1006.364.364,0,0,0,.0576.0371,1.0057,1.0057,0,0,0,.1905.1l.081.0391A50.0792,50.0792,0,0,0,36.4426,35.85a38.37,38.37,0,0,0,10.6582-1.4043.7773.7773,0,0,0,.2559-.1338.71.71,0,0,0,.1865-.2177.7266.7266,0,0,0,.0693-.2129l.03-.1192c.0381-.5137.0576-1.0132.0576-1.5014a16.8865,16.8865,0,0,0-.2363-2.7Z"/>
      <path d="M47.6428,33.7617l-.03.1192a.7266.7266,0,0,1-.0693.2129.71.71,0,0,1-.1865.2177.7773.7773,0,0,1-.2559.1338A38.37,38.37,0,0,1,36.4426,35.85a50.0792,50.0792,0,0,1-11.7041-1.3828l-.081-.0391a1.0057,1.0057,0,0,1-.1905-.1.364.364,0,0,1-.0576-.0371.6921.6921,0,0,1-.0869-.1006l-.0889-.1152a.5837.5837,0,0,1-.0332-.0986l-.0293-.0987a.946.946,0,0,1-.03-.1025c-.0332-.5049-.0469-1.0181-.041-1.522a15.9528,15.9528,0,0,1,.2968-2.7026l.0352-.0845a.6582.6582,0,0,1,.0566-.1367.7668.7668,0,0,1,.0772-.1152.6833.6833,0,0,1,.1015-.1011.6525.6525,0,0,1,.1153-.0772.6748.6748,0,0,1,.13-.0556.7426.7426,0,0,1,.1455-.0288l.0761-.02,21.5918.0034.0869.0186a.7571.7571,0,0,1,.1446.0278.7348.7348,0,0,1,.1279.06.6022.6022,0,0,1,.2129.18.6724.6724,0,0,1,.08.1191.7662.7662,0,0,1,.0517.1377l.0342.0815a16.8865,16.8865,0,0,1,.2363,2.7C47.7,32.7485,47.6809,33.248,47.6428,33.7617Z"/>
    </g>
  </g>
  <g id="line">
    <path d="M32.9,39a7.8,7.8,0,0,0,6,0" fill="none" stroke="#000" stroke-linecap="round" stroke-linejoin="round" stroke-width="2"/>
    <path d="M26,38c-3,0-4-7-4-14,0-6,5-12,14-12s14,6,14,12c0,7-1,14-4,14" fill="none" stroke="#000" stroke-linecap="round" stroke-linejoin="round" stroke-width="2"/>
    <path d="M17,60V57c0-5,5-9,10-9q9,7.5,18,0c5,0,10,4,10,9v3" fill="none" stroke="#000" stroke-linecap="round" stroke-linejoin="round" stroke-width="2"/>
    <path d="M26.0774,25.1985A18.8,18.8,0,0,0,24.9,31c-.1,8,4.9,14,11,14,6,0,11.1-6,11.1-14a20.7629,20.7629,0,0,0-.9492-5.6777A55.7025,55.7025,0,0,1,26.0774,25.1985Z" fill="none" stroke="#000" stroke-linecap="round" stroke-linejoin="round" stroke-width="2"/>
    <path d="M25.0737,33.76c1.3016.3283,11.8344,2.8166,21.7159.009" fill="none" stroke="#000" stroke-linecap="round" stroke-linejoin="round" stroke-width="2"/>
    <line x1="25.1835" y1="29.6819" x2="46.7733" y2="29.6819" fill="none" stroke="#000" stroke-linecap="round" stroke-linejoin="round" stroke-width="2"/>
    <polyline points="27 48 27 55.466 45.024 55.466 45.024 48" fill="none" stroke="#000" stroke-linecap="round" stroke-linejoin="round" stroke-width="2"/>
    <line x1="22" y1="49.3242" x2="22" y2="60" fill="none" stroke="#000" stroke-linecap="round" stroke-linejoin="round" stroke-width="2"/>
    <line x1="50.0038" y1="49.3242" x2="50.0038" y2="60" fill="none" stroke="#000" stroke-linecap="round" stroke-linejoin="round" stroke-width="2"/>
  </g>
</svg>
