<svg id="emoji" xmlns="http://www.w3.org/2000/svg" viewBox="0 0 72 72">
  <g id="color">
    <path d="M45.5858,53.4121c-10.914,4.7929-21.1028.4312-25.7068-6.3169a16.1586,16.1586,0,0,0,3.1692,8.945l5.1449,5.9182,2.6252,1.9009,3.8435-.31,1.0753-.62c.012.01,1.2413.0323,1.2413.0323l3.6071,1.6454,5.8913-4.7475c.8769-1.1692,2.5862-2.8335,3.4667-4.2794A19.9276,19.9276,0,0,0,52.6,47.0952Z" fill="#d22f27"/>
    <path d="M23.863,12.8841l-4.5,1.75-7.25,8.5-4.5,10.75,2,5.25a20.2178,20.2178,0,0,0,7.25,10l2.5-3.3333s3.8218,7.71,10.7384,8.96c0,0,10.2616,1.936,15.5949-.8765a9.4549,9.4549,0,0,0,4.4167-4.4167L53.53,46.0507,55.113,48.384l2.0833-.0833,5.4167-7.25,1.75-5.4166-.1667-4.5-2.3333-5.5L57.03,18.2174s-2.6667-4.9167-8.1667-3.9167c0,0-6.5-4.8333-11.8333-4.0833S32.4463,8.9674,23.863,12.8841Z" fill="#3f3f3f"/>
    <polygon points="36.363 45.459 33.28 47.876 30.78 47.876 30.696 51.709 31.446 55.209 32.53 57.126 35.363 58.626 39.946 58.043 41.53 56.293 42.53 52.043 42.28 48.043 40.28 48.293 36.363 45.459" fill="#e67a94"/>
  </g>
  <g id="line">
    <path d="M22.6567,53.5118c2.15,3.9653,7.6481,10.2287,9.5046,10.2287a6.8312,6.8312,0,0,0,3.0864-1.0651l.8558-.48" fill="none" stroke="#000" stroke-linecap="round" stroke-linejoin="round" stroke-width="2"/>
    <path d="M35.5939,61.5311c1.8886,1.3307,3.6249,2.2094,4.8764,2.2094,1.0135,0,6.6148-5.1352,8.8489-9.05" fill="none" stroke="#000" stroke-linecap="round" stroke-linejoin="round" stroke-width="2"/>
    <path d="M34.992,38.6012a1,1,0,0,1-1.4567.754L31.3561,38.21l1.1579-2.7245a1,1,0,0,1,.92-.6089h6.3571a1,1,0,0,1,.92.6089L41.87,38.21l-2.1792,1.1456a1,1,0,0,1-1.4567-.754" fill="none" stroke="#000" stroke-linecap="round" stroke-linejoin="round" stroke-width="2"/>
    <path d="M30.7994,48.3254s-.7187,8.7934,3.0072,9.9375c2.6459.8125,5.15.5324,6.0625-.25.875-.75,2.6323-4.4741,1.8267-9.6875" fill="none" stroke="#000" stroke-linecap="round" stroke-linejoin="round" stroke-width="2"/>
    <path d="M25.9875,41.1379c-.475,3.6024,2.2343,5.75,4.2847,6.8414a3.4155,3.4155,0,0,0,3.7176-.3181l2.581-2.0233,2.581,2.0233a3.4155,3.4155,0,0,0,3.7176.3181c2.05-1.0909,4.76-3.239,4.2847-6.8414" fill="none" stroke="#000" stroke-linecap="round" stroke-linejoin="round" stroke-width="2"/>
    <path d="M20.3139,26.6558c-2.3166,5.16-.5084,13.0249.119,15.3759a1.9778,1.9778,0,0,1-.1271,1.3631l-1.9874,4.1937a1.9966,1.9966,0,0,1-3.331.4409c-3.1921-3.7871-8.5584-11.39-6.5486-16.686,7.0625-18.61,15.8677-18.1429,15.8677-18.1429,2.8453-1.9336,13.1042-6.9375,24.8125.875,0,0,8.6323-1.7175,14.9375,16.9375,1.8036,5.3362-3.43,12.8668-6.5506,16.6442a1.9966,1.9966,0,0,1-3.3423-.4272L52.19,43.0644a1.9778,1.9778,0,0,1-.1271-1.3631c.6275-2.3509,2.4356-10.2161.119-15.3759" fill="none" stroke="#000" stroke-linecap="round" stroke-linejoin="round" stroke-width="2"/>
    <path d="M52.9939,44.7614s-3.0781,6.7216-7.8049,8.2712" fill="none" stroke="#000" stroke-linecap="round" stroke-linejoin="round" stroke-width="2"/>
    <path d="M19.8,45.2676S22.8781,51.35,27.6049,52.9" fill="none" stroke="#000" stroke-linecap="round" stroke-linejoin="round" stroke-width="2"/>
    <line x1="36.613" y1="45.8762" x2="36.613" y2="42.8762" fill="none" stroke="#000" stroke-linecap="round" stroke-linejoin="round" stroke-width="2"/>
    <circle cx="28.0147" cy="27.2212" r="2"/>
    <circle cx="46.4621" cy="27.2212" r="2"/>
  </g>
</svg>
