<svg id="emoji" xmlns="http://www.w3.org/2000/svg" viewBox="0 0 72 72">
  <g id="color">
    <g id="color-2" data-name="color">
      <path d="M16.125,60.9583,16,57c0-5.875,6.1328-10,11.125-10q9,7.5,18,0c4.9941,0,10,5.0059,10,10v3.958" fill="#3f3f3f"/>
    </g>
    <g id="hair">
      <path d="M25.8965,39c-4,0-4.832-6.5-4.832-13.5S25.8965,12,35.8965,12s14,7,14,14,0,13-4,13" fill="#a57939"/>
    </g>
  </g>
  <g id="skin-shadow">
    <g id="skin-2" data-name="skin">
      <path d="M28.9688,43.094A11.1849,11.1849,0,0,0,35.875,46C41.8115,46,47,40.75,47,31.75a12.1371,12.1371,0,0,0-1-5,102.1428,102.1428,0,0,1-7.6562-9.5c-1.1211.8413-2.0743,2.5479-3.3243,3.978" fill="#e3bd94"/>
      <path d="M29,60.9583c.0049-.57-.6973-10.4092,0-14.9717C29.2666,44.2405,31,44,32,42c3-6,1.833-8.333,4-14,1.13-2.9541-1.5645-3.7236-3.127-.6l3.0079-3.7939c1.2041-3.3145-2.5879-4.44-4.2559-2.606l-1.8271,3.6265c1.5693-2.3536-.9815-4.1485-2.6729-2.375C25.5459,23.9075,23.501,28.5467,22,33a9.9094,9.9094,0,0,1,.8125-4.1875c.5645-1.21.2285-2.9492-1.6875-2.8125-.9971.0713-1.7637,2.7734-2.54,5.667a15.415,15.415,0,0,0,.72,8.4209C20.7188,42.9163,21,42.9866,21,42.9866s-2,8.9717-4,17.9717" fill="#e3bd94"/>
    </g>
  </g>
  <g id="line">
    <path d="M22.3145,23.4022C23.2129,17.3665,27.3691,12,36.125,12c10,0,14,7,14,14s0,13-4,13" fill="none" stroke="#000" stroke-linecap="round" stroke-linejoin="round" stroke-width="2"/>
    <path d="M41.998,30a2,2,0,1,1-2-2,2,2,0,0,1,2,2"/>
    <path d="M37.5625,38H39.125" fill="none" stroke="#000" stroke-linecap="round" stroke-linejoin="round" stroke-width="2"/>
    <path d="M55.125,60V57c0-4.9941-5.0059-9-10-9a15.2539,15.2539,0,0,1-10.0937,3.6934,17.4834,17.4834,0,0,1-2.0538-.14" fill="none" stroke="#000" stroke-linecap="round" stroke-linejoin="round" stroke-width="2"/>
    <path d="M32.4707,21.5423C30.28,24.8279,30.5723,24.3465,27.125,31" fill="none" stroke="#000" stroke-linecap="round" stroke-linejoin="round" stroke-width="2"/>
    <path d="M22.125,32.6028A72.14,72.14,0,0,1,27.6563,23" fill="none" stroke="#000" stroke-linecap="round" stroke-linejoin="round" stroke-width="2"/>
    <path d="M17.125,60c2-9,4-17.4111,4-17.4111a26.5574,26.5574,0,0,1-2-3.5889c-2-4,0-9,2-12" fill="none" stroke="#000" stroke-linecap="round" stroke-linejoin="round" stroke-width="2"/>
    <path d="M35.125,23a65.942,65.942,0,0,0-4,9" fill="none" stroke="#000" stroke-linecap="round" stroke-linejoin="round" stroke-width="2"/>
    <path d="M29.125,60c.0049-.57-.6973-9.4512,0-14.0137.2666-1.7461,2.1914-2.289,3-3.9863,1.9063-4,2.334-7.8057,3.9365-14" fill="none" stroke="#000" stroke-linecap="round" stroke-linejoin="round" stroke-width="2"/>
    <path d="M37.4512,19.7112A11.0547,11.0547,0,0,1,39.125,18s4,5,7,8a12.1371,12.1371,0,0,1,1,5c0,9-5.127,14-11.0635,14-.2187,0-.5595-.0229-.9365-.0562" fill="none" stroke="#000" stroke-linecap="round" stroke-linejoin="round" stroke-width="2"/>
  </g>
</svg>
