<svg id="emoji" xmlns="http://www.w3.org/2000/svg" viewBox="0 0 72 72">
  <g id="color">
    <path d="M50.5462,59.2405H12.0013a1,1,0,0,1-1-1v-5.082c-.0273-2.2735.3525-6.5362,3.1963-9.4141,1.9346-1.958,4.6572-2.95,8.0928-2.95H40.2572c3.4365,0,6.16.9932,8.0947,2.9512,2.8437,2.8779,3.2217,7.1406,3.1943,9.4248v5.07A.9994.9994,0,0,1,50.5462,59.2405Zm-37.5449-1h0Z" fill="#e3bd94"/>
    <path d="M31.2764,17.4205c7.6593,0,14.1048,1.4273,15.381,9.545a19.1338,19.1338,0,0,0,.2478-3.0222c0-9.5366-6.9756-17.2949-15.5507-17.2949S15.8037,14.4067,15.8037,23.9433a19.1325,19.1325,0,0,0,.2478,3.0221C17.3277,18.8477,23.6171,17.4205,31.2764,17.4205Z" fill="#3f3f3f"/>
    <path d="M44.8949,21.1009c-2.3515-2.8491-6.9365-4.294-13.6279-4.294-6.3809,0-10.8613,1.41-13.3154,4.1919a7.1448,7.1448,0,0,0-1.87,5.1929,18.493,18.493,0,0,0,1.2714,4.99l.0645.1035-.1934.1624,0,0,.2323-.0958a.7866.7866,0,0,0,.1142.1119l.0528.0478a.7592.7592,0,0,0,.1533.0762l-.0635.2451.124-.2168a.7734.7734,0,0,0,.1738.0293l.044-.001a.72.72,0,0,0,.2246-.0361c.0791-.0254,8.1221-2.6235,12.9873-2.6235,5.5928,0,13.0859,2.2192,13.1611,2.2412a.751.751,0,0,0,.9219-.4722l.0518-.1187a18.7082,18.7082,0,0,0,1.05-4.44V26.179A6.68,6.68,0,0,0,44.8949,21.1009Z" fill="#e3bd94"/>
    <path d="M31.3675,47.3616c-.2021,0-.4053-.0078-.6113-.0244C21.4769,46.595,17.2669,31.66,17.0931,31.0237a1,1,0,0,1,.6553-1.2158c.3408-.11,8.4043-2.709,13.5283-2.709,5.832,0,13.3437,2.22,13.6611,2.3145a1,1,0,0,1,.67,1.2519C45.3929,31.3616,40.3626,47.3616,31.3675,47.3616Z" fill="#3f3f3f"/>
    <path d="M51.3917,67.2239h-13.48a.9993.9993,0,0,1-.707-.293l-9.5323-9.5322a.9992.9992,0,0,1-.2929-.707V43.2122a.9992.9992,0,0,1,.2929-.707l9.5323-9.5313a.9993.9993,0,0,1,.707-.293h13.48a.9993.9993,0,0,1,.707.293L61.63,42.5052a.9992.9992,0,0,1,.2929.707V56.6917a.9992.9992,0,0,1-.2929.707l-9.5313,9.5322A.9993.9993,0,0,1,51.3917,67.2239Z" fill="#d22f27"/>
    <g>
      <path d="M31.3477,46.6085h2.6112A1.666,1.666,0,0,1,35.62,48.27v.1149a1.666,1.666,0,0,1-1.6612,1.6611H31.3477" fill="none" stroke="#fff" stroke-linecap="round" stroke-miterlimit="10" stroke-width="2"/>
      <line x1="31.3477" y1="46.6085" x2="31.3477" y2="53.4262" fill="none" stroke="#fff" stroke-linecap="round" stroke-miterlimit="10" stroke-width="2"/>
    </g>
    <g>
      <path d="M46.3045,46.6085h2.6113A1.666,1.666,0,0,1,50.5769,48.27v.1149a1.666,1.666,0,0,1-1.6611,1.6611" fill="none" stroke="#fff" stroke-linecap="round" stroke-miterlimit="10" stroke-width="2"/>
      <line x1="46.3045" y1="46.6085" x2="46.3045" y2="53.4262" fill="none" stroke="#fff" stroke-linecap="round" stroke-miterlimit="10" stroke-width="2"/>
      <polyline points="50.497 53.426 48.916 50.046 46.305 50.046" fill="none" stroke="#fff" stroke-linecap="round" stroke-miterlimit="10" stroke-width="2"/>
    </g>
    <g>
      <polyline points="36.995 53.426 39.905 46.609 43.142 53.426" fill="none" stroke="#fff" stroke-linecap="round" stroke-linejoin="round" stroke-width="2"/>
      <line x1="37.7673" y1="51.7423" x2="42.2819" y2="51.7423" fill="none" stroke="#fff" stroke-linecap="round" stroke-linejoin="round" stroke-width="2"/>
    </g>
    <g>
      <polyline points="57.955 46.609 54.263 46.609 54.263 53.426 57.955 53.426" fill="none" stroke="#fff" stroke-linecap="round" stroke-linejoin="round" stroke-width="2"/>
      <line x1="56.9181" y1="50.0174" x2="54.2628" y2="50.0174" fill="none" stroke="#fff" stroke-linecap="round" stroke-linejoin="round" stroke-width="2"/>
    </g>
  </g>
  <g id="line">
    <path d="M37.3545,23.268a2,2,0,1,1-2-2,2.0007,2.0007,0,0,1,2,2"/>
    <path d="M29.3545,23.268a2,2,0,1,1-2-2,2.0007,2.0007,0,0,1,2,2"/>
    <path d="M12.0016,58.24V53.1586c-.0436-3.6346.96-11.3647,10.2888-11.3647h1.213" fill="none" stroke="#000" stroke-linecap="round" stroke-linejoin="round" stroke-width="2"/>
    <path d="M18.0558,30.76a17.8856,17.8856,0,0,1-1.3305-6.8165c0-9,6.5148-16.2951,14.5511-16.2951s14.5511,7.2956,14.5511,16.2951a17.9385,17.9385,0,0,1-1.1434,6.3428" fill="none" stroke="#000" stroke-linecap="round" stroke-linejoin="round" stroke-width="2"/>
    <path d="M43.4228,33.6812c.8068-1.939,1.2287-3.31,1.2287-3.31s-7.622-2.2726-13.3751-2.2726c-5.0238,0-13.219,2.6606-13.219,2.6606s.3282,1.1942.9962,2.9219" fill="none" stroke="#000" stroke-linecap="round" stroke-linejoin="round" stroke-width="2"/>
    <path d="M21.8827,39.4766c1.6279,2.64,3.7866,5.1381,6.4975,6.2638" fill="none" stroke="#000" stroke-linecap="round" stroke-linejoin="round" stroke-width="2"/>
    <path d="M16.8375,25.976s-1.07-8.5555,14.4389-8.5555c16.0875,0,14.4365,8.5555,14.4365,8.5555" fill="none" stroke="#000" stroke-linecap="round" stroke-linejoin="round" stroke-width="2"/>
    <path d="M19.0537,33.681s1.37,6.2756,9.18.5424" fill="none" stroke="#000" stroke-linecap="round" stroke-linejoin="round" stroke-width="2"/>
    <polygon points="51.391 33.681 37.912 33.681 28.38 43.212 28.38 56.692 37.912 66.223 51.391 66.223 60.923 56.692 60.923 43.212 51.391 33.681" fill="none" stroke="#000" stroke-linecap="round" stroke-linejoin="round" stroke-width="2"/>
  </g>
</svg>
