<svg id="emoji" xmlns="http://www.w3.org/2000/svg" viewBox="0 0 72 72">
  <g id="color">
    <path d="M48.0167,33.5132c3.4248-3.417,2.6406-8.1787,1.6582-10.3633a12.1926,12.1926,0,0,0-5.15-5.5554C49.94,13.54,48.531,6.0621,48.5149,5.98A.9994.9994,0,0,0,47.23,5.2255c-7.0855,2.2656-8.4262,7.2236-8.5457,10.2313a21.2064,21.2064,0,0,0-3.54-.4148l-.0026-.0005h-.0361a18.0039,18.0039,0,0,0-3.4685.405c-.1222-3.0075-1.4672-7.9584-8.546-10.221a.9938.9938,0,0,0-.8116.09,1.0045,1.0045,0,0,0-.4736.665c-.0162.083-1.4553,7.7084,4.1494,11.733a13.2865,13.2865,0,0,0-4.6827,5.1094C20.0441,25.1187,18.8263,30.12,22.32,33.5874c-2.1621,2.72-3.458,8.1973-3.458,11.4278A12.0592,12.0592,0,0,0,23.5309,54.49,26.0316,26.0316,0,0,0,25.39,60.3492a.9985.9985,0,0,0,.8974.5595h4.8653a.9985.9985,0,0,0,.8974-.5595,22.7667,22.7667,0,0,0,1.3882-3.7809,10.9622,10.9622,0,0,0,2.1177.2115,9.38,9.38,0,0,0,1.8938-.1967,22.7189,22.7189,0,0,0,1.3835,3.7661.9988.9988,0,0,0,.8975.5595h4.8662a.9988.9988,0,0,0,.8975-.5595,23.1856,23.1856,0,0,0,1.7546-5.6482,12.0115,12.0115,0,0,0,4.95-9.6858C52.1993,41.7369,50.7521,36.2925,48.0167,33.5132Z" fill="#fcea2b"/>
    <path d="M28.7239,66.7394a2.822,2.822,0,0,1-2.8184-2.8183V62.5978a1,1,0,0,1,1-1h3.6377a1,1,0,0,1,1,1v1.3233A2.8221,2.8221,0,0,1,28.7239,66.7394Z" fill="#3f3f3f"/>
    <path d="M41.8713,66.7394a2.8219,2.8219,0,0,1-2.8183-2.8183V62.5978a.9994.9994,0,0,1,1-1H43.69a1,1,0,0,1,1,1v1.3233A2.822,2.822,0,0,1,41.8713,66.7394Z" fill="#3f3f3f"/>
    <path d="M65.0453,25.2785a1.0015,1.0015,0,0,0-.52-.7129L53.8217,18.9494a1.0006,1.0006,0,0,0-1.3858.4961l-4.1806,9.8886c-.01.0229-.0064.0468-.0142.07-.0044.0124-.0142.0209-.0181.0335a6.463,6.463,0,0,1-2.3349,3.2891,1,1,0,0,0,.03,1.6084c2.25,1.5977,3.9532,6.2774,4.24,9.6973.0022.0258.0161.0467.02.0719a1.2818,1.2818,0,0,0,.1371.3651c.0124.02.0144.0434.0284.063s.0381.0272.0539.0459a.9789.9789,0,0,0,.2492.2127.8281.8281,0,0,0,.5065.1574h.0029l.0013,0c.0268,0,.0539-.0009.0808-.0037.0234-.002.042-.0153.0649-.0189a1.0491,1.0491,0,0,0,.3613-.1281c.0243-.0145.0513-.0207.0747-.0376l8.31-5.98a.9994.9994,0,0,0-.02-1.6367L56.78,34.921l8.02-8.7959A1.0025,1.0025,0,0,0,65.0453,25.2785Z" fill="#fcea2b"/>
  </g>
  <g id="line">
    <polyline points="51.158 43.949 59.467 37.97 55.268 35.099 64.063 25.452 53.359 19.836 51.801 23.521" fill="none" stroke="#000" stroke-linecap="round" stroke-linejoin="round" stroke-width="2"/>
    <path d="M30.6237,16.7075c.2088-2.8566-.4809-8.178-7.837-10.53,0,0-1.6556,8.2307,5.1289,11.5624" fill="none" stroke="#000" stroke-linecap="round" stroke-linejoin="round" stroke-width="2"/>
    <path d="M39.6981,16.7128c-.21-2.8553.476-8.1819,7.8366-10.5349,0,0,1.6376,8.1409-5.0182,11.5072" fill="none" stroke="#000" stroke-linecap="round" stroke-linejoin="round" stroke-width="2"/>
    <path d="M24.45,53.9518a26.1142,26.1142,0,0,0,1.841,5.959" fill="none" stroke="#000" stroke-linecap="round" stroke-linejoin="round" stroke-width="2"/>
    <path d="M33.03,53.9961a26.9982,26.9982,0,0,1-1.8732,5.915" fill="none" stroke="#000" stroke-linecap="round" stroke-linejoin="round" stroke-width="2"/>
    <path d="M37.862,53.9961a26.9947,26.9947,0,0,0,1.8732,5.9147" fill="none" stroke="#000" stroke-linecap="round" stroke-linejoin="round" stroke-width="2"/>
    <path d="M46.3316,54.1538a22.941,22.941,0,0,1-1.7306,5.757" fill="none" stroke="#000" stroke-linecap="round" stroke-linejoin="round" stroke-width="2"/>
    <path d="M30.5429,62.5978v1.3235A1.8238,1.8238,0,0,1,28.7244,65.74h0a1.8239,1.8239,0,0,1-1.8186-1.8185V62.5978" fill="none" stroke="#000" stroke-linecap="round" stroke-linejoin="round" stroke-width="2"/>
    <path d="M43.69,62.5978v1.3235A1.8238,1.8238,0,0,1,41.8716,65.74h0a1.8238,1.8238,0,0,1-1.8186-1.8185V62.5978" fill="none" stroke="#000" stroke-linecap="round" stroke-linejoin="round" stroke-width="2"/>
    <path d="M29.1958,40.5767l-2.1827,2.8919a1.3369,1.3369,0,0,1-1.8664.3024l-.9186-.6624a1.3369,1.3369,0,0,1-.3024-1.8664l2.1827-2.892" fill="none" stroke="#000" stroke-linecap="round" stroke-linejoin="round" stroke-width="2"/>
    <path d="M41.84,40.5767l2.1827,2.8919a1.3369,1.3369,0,0,0,1.8664.3024l.9186-.6624a1.3369,1.3369,0,0,0,.3024-1.8664L44.927,38.35" fill="none" stroke="#000" stroke-linecap="round" stroke-linejoin="round" stroke-width="2"/>
    <circle cx="28.3709" cy="28.8924" r="3" fill="#ea5a47"/>
    <circle cx="41.8396" cy="28.8924" r="3" fill="#ea5a47"/>
    <g>
      <path d="M46.3315,54.1537a11.0375,11.0375,0,0,0,4.8722-9.1358c0-3.7018-1.8839-9.4953-4.7037-11.4975,5.0129-3.8548,2.2676-9.9584,2.2676-9.9584-3.3181-7.3694-13.3235-7.5158-13.6361-7.5185-.3127.0027-9.1415-.1157-12.9729,7.2537,0,0-3.4086,6.3684,1.6043,10.2232-2.3776,2.0265-3.8962,8.1476-3.8962,11.4975A11.0312,11.0312,0,0,0,24.45,53.9518" fill="none" stroke="#000" stroke-linecap="round" stroke-linejoin="round" stroke-width="2"/>
      <path d="M35.1167,16.0434h0Z" fill="none" stroke="#000" stroke-linecap="round" stroke-linejoin="round" stroke-width="2"/>
    </g>
  </g>
</svg>
