<svg id="emoji" xmlns="http://www.w3.org/2000/svg" viewBox="0 0 72 72">
  <g id="color">
    <path d="M56,58.0093H54.0244V52.3452a1,1,0,0,0-1-1H50.71V49.2729a.9992.9992,0,0,0-.2929-.707l-1.9307-1.93V34.9516a1,1,0,0,0-1-1H24.5127a.9994.9994,0,0,0-1,1V46.6362l-1.93,1.93a.9993.9993,0,0,0-.293.707v2.0723H18.9756a.9994.9994,0,0,0-1,1v5.6641H16a.9993.9993,0,0,0-1,1v4.9414a.9994.9994,0,0,0,1,1H56a1,1,0,0,0,1-1V59.0093A.9994.9994,0,0,0,56,58.0093Z" fill="#d0cfce"/>
    <path d="M56,58.0093H54.0244V52.3452a1,1,0,0,0-1-1H50.71V49.2729a.9992.9992,0,0,0-.2929-.707l-1.9307-1.93V34.9516a1,1,0,0,0-1-1H36V53.3452h0v4.6641h0v6.9414H56a1,1,0,0,0,1-1V59.0093A.9994.9994,0,0,0,56,58.0093Z" fill="#9b9b9a"/>
    <path d="M46.6637,16.98a5.4287,5.4287,0,0,0-2.9843-2.8593l-.0123-.0016c-.012-.004-.02-.0135-.0327-.017a9.593,9.593,0,0,0-5.0332.0147,19.4394,19.4394,0,0,1-6.5888-.05,10.1718,10.1718,0,0,0-6.4952-4.9257c-.5214-1.1143-1.164-2.1748-2.288-2.0869-.9522.09-1.2,1.0507-1.2344,2.6953a4.6812,4.6812,0,0,0-1.5362,2.7119,21.4858,21.4858,0,0,0-1.3515,2.58,1.0052,1.0052,0,0,0-.085.4033,2.3677,2.3677,0,0,0,1.8692,2.1767,2.1118,2.1118,0,0,0,.45.05,1.98,1.98,0,0,0,1.749-1.0791l.3652-.4033a3.3529,3.3529,0,0,0,.8694-.23l.1951,1.2469c-.1848.9735-.7926,5.1637,1.662,7.8536a24.9183,24.9183,0,0,1,1.1514,6.4775,6.0723,6.0723,0,0,1-.73,2.916,1,1,0,0,0,.8613,1.5088h2.43a.9993.9993,0,0,0,.707-.293c1.9112-1.9121,1.6651-8.5185,1.4365-11.583a17.6775,17.6775,0,0,0,5.91-.2146,8.5061,8.5061,0,0,0,3.68,5.9617,6.8806,6.8806,0,0,1,.2412,3.3974,14.0612,14.0612,0,0,0-.21,1.7315,1,1,0,0,0,1,1H44.903a1,1,0,0,0,.9824-.8135,40.9842,40.9842,0,0,0,.3232-12.1035C47.2321,20.7029,47.3854,18.6638,46.6637,16.98Z" fill="#3f3f3f"/>
    <path d="M29.9618,18.631l.2676-.4629.501,1.8936a.8641.8641,0,0,0,.1853.4015c.2585.2608.7236.0851.9522-.2023s.3372-.66.5878-.9286c.34-.3636.8772-.4722,1.2531-.798.2283-.1979.4077-.4813.7-.5592a1.5114,1.5114,0,0,1,.9361.2356c1.3276.566,2.8356-.047,4.1455-.653" fill="none" stroke="#f4aa41" stroke-linecap="round" stroke-linejoin="round"/>
    <path d="M31.9369,56.9838l.2469-.9389c.1629-.6195.5289-1.3849,1.0476-1.2148.2493.0817.41.3637.56.6178a9.3106,9.3106,0,0,0,1.3206,1.742c.1024.1058.2283.2151.36.179.1518-.0418.222-.25.2611-.4328a5.76,5.76,0,0,1,.451-1.6314c.27-.4756.8494-.7646,1.2322-.42.5878.5284.1181,1.8042.5983,2.4729.3729.5192,1.1144.3267,1.508-.17a7.0292,7.0292,0,0,0,.8027-1.8076c.1764-.4471.5453-.9315.9242-.7434a1.0626,1.0626,0,0,1,.4038.59L43.04,58.7152l1.5891-3.9314c.132-.3264.3371-.7056.636-.67.223.0265.3739.2793.489.5118A16.5576,16.5576,0,0,1,47.05,58.2949a1.295,1.295,0,0,0,.2182.5607c.3682.4272.9522-.0856,1.2549-.5824s.8057-1.0767,1.2365-.746" fill="none" stroke="#61b2e4" stroke-linecap="round" stroke-linejoin="round" stroke-width="1.1403"/>
    <path d="M36.9729,20.0928c.6258-.0486.9634,1.729,1.5864,1.6108.3207-.0608.5328-.6083.7364-1.0636s.525-.8971.821-.6645c.1034.0812.1859.2367.2914.3083.1943.132.4081-.05.5824-.2549a5.4329,5.4329,0,0,0,.6927-1.0567,1.4073,1.4073,0,0,1,.4108-.5905c.328-.1753.64.39.7661.9688a10.5194,10.5194,0,0,0,.369,1.7317.9408.9408,0,0,0,1.048.6853,2.1667,2.1667,0,0,0,1.055-.8521" fill="none" stroke="#b399c8" stroke-linecap="round" stroke-linejoin="round"/>
    <path d="M27.5122,46.5094l-.0042-2.3A22.8205,22.8205,0,0,0,31.5165,48.21a4.93,4.93,0,0,0,.317-2.5637c-.0283-.1952-.0545-.43.0972-.556a.53.53,0,0,1,.33-.0874,6.0962,6.0962,0,0,1,1.6169.1715,2.28,2.28,0,0,0,.961.119c1.1022-.2135,1.2262-2.0868,2.3352-2.2613a1.8875,1.8875,0,0,1,.9477.1845l2.2292.854a1.8832,1.8832,0,0,0,1.5929.11" fill="none" stroke="#f1b31c" stroke-linecap="round" stroke-linejoin="round"/>
    <path d="M19.0221,63.854l1.6535-2.6295a.9637.9637,0,0,1,.5932-.5046,1.5285,1.5285,0,0,1,1.3385.5682,4.407,4.407,0,0,0,.9242,1.0221.8633.8633,0,0,0,.4348.1509.7538.7538,0,0,0,.4159-.1433,4.6152,4.6152,0,0,0,1.0557-.8956c1.0347.0179,1.98.8208,3.0119.8225a2.5855,2.5855,0,0,0,1.5316-.5994,3.0155,3.0155,0,0,1,1.4617-.6905" fill="none" stroke="#d22f27" stroke-linecap="round" stroke-linejoin="round"/>
    <path d="M29.8371,41.1975l2.2911-2.216a.5629.5629,0,0,1,.9684-.0208l2.0874,2.07,2.1335-2.0254c.3729-.354.984-.7108,1.338-.3379.2.2111.1777.5482.3111.8068.3174.6156,1.266.4593,1.8179.041s1.0329-1.0284,1.7212-1.105a1.6862,1.6862,0,0,1,1.4807.77,4.9713,4.9713,0,0,1,.6547,1.6126" fill="none" stroke="#000" stroke-linecap="round" stroke-linejoin="round"/>
    <path d="M26.8509,12.669c-.1257.2519.0655.5516.2918.719a2.48,2.48,0,0,1,.661.5161c.4556.6791-.4667,1.6091-.1653,2.3693.0556.1405.15.2622.2151.3987a2.0756,2.0756,0,0,1,.1106,1.0172" fill="none" stroke="#d22f27" stroke-linecap="round" stroke-linejoin="round"/>
  </g>
  <g id="line">
    <polyline points="53.024 56.563 53.024 52.345 18.975 52.345 18.975 56.563" fill="none" stroke="#000" stroke-linecap="round" stroke-linejoin="round" stroke-width="2"/>
    <rect x="15.9999" y="59.0092" width="40" height="4.9415" stroke-width="2" stroke="#000" stroke-linecap="round" stroke-linejoin="round" fill="none"/>
    <polyline points="22.29 49.273 24.513 47.05 24.513 34.951 47.487 34.951 47.487 47.05 49.71 49.273" fill="none" stroke="#000" stroke-linecap="round" stroke-linejoin="round" stroke-width="2"/>
    <g id="line-2" data-name="line">
      <path d="M24.9772,13.6009c-.123,1.6793-1.9793,1.6011-1.9793,1.6011l-.7317.8085c-.6073,1.3161-2.2373.3847-2.2373-.5756a19.65,19.65,0,0,1,1.426-2.6779c-.0582-1.3,1.5425-2.5618,1.5425-2.5618s-.0008-2.1231.3315-2.1543c.5835-.0552,1.0557.9913,1.5024,1.98a9.0742,9.0742,0,0,1,6.5014,4.8574,18.1442,18.1442,0,0,0,7.484.2059,8.7753,8.7753,0,0,1,4.5467-.0309" fill="none" stroke="#000" stroke-linecap="round" stroke-linejoin="round" stroke-width="2"/>
      <path d="M27.078,24.5475a26.3632,26.3632,0,0,1,1.2614,6.939,7.034,7.034,0,0,1-.8683,3.4647h2.43c2.0433-2.0432,1.0371-12.058,1.0371-12.058s4.578.9465,7.8748-.331" fill="none" stroke="#000" stroke-linecap="round" stroke-linejoin="round" stroke-width="2"/>
      <path d="M24.9772,13.6009l.565,3.618s-1.0786,4.7142,1.5358,7.3286" fill="none" stroke="#000" stroke-linecap="round" stroke-linejoin="round" stroke-width="2"/>
      <path d="M43.3622,15.0573s4.694,1.6044,1.8229,7.83a40.1079,40.1079,0,0,1-.276,12.0636H42.6656a14.465,14.465,0,0,1,.1951-1.5593,8.25,8.25,0,0,0-.4021-4.2539c-3.5392-1.8336-3.6459-6.5758-3.6459-6.5758" fill="none" stroke="#000" stroke-linecap="round" stroke-linejoin="round" stroke-width="2"/>
    </g>
    <path d="M44.9894,16.1892s3.029,1.1348,3.029,6.785c0,0-.3555,5.455,1.2132,7.0237" fill="none" stroke="#000" stroke-linecap="round" stroke-linejoin="round" stroke-width="2"/>
  </g>
</svg>
